<?xml version="1.0" standalone="no"?><!DOCTYPE svg PUBLIC "-//W3C//DTD SVG 1.1//EN" "http://www.w3.org/Graphics/SVG/1.1/DTD/svg11.dtd"><svg t="1562233833765" class="icon" viewBox="0 0 1024 1024" version="1.1" xmlns="http://www.w3.org/2000/svg" p-id="1245" xmlns:xlink="http://www.w3.org/1999/xlink" width="200" height="200"><defs><style type="text/css"></style></defs><path d="M329.142857 658.285714l0 73.142857-73.142857 0 0-73.142857 73.142857 0zM329.142857 219.428571l0 73.142857-73.142857 0 0-73.142857 73.142857 0zM768 219.428571l0 73.142857-73.142857 0 0-73.142857 73.142857 0zM182.857143 804l219.428571 0 0-218.857143-219.428571 0 0 218.857143zM182.857143 365.714286l219.428571 0 0-219.428571-219.428571 0 0 219.428571zM621.714286 365.714286l219.428571 0 0-219.428571-219.428571 0 0 219.428571zM475.428571 512l0 365.714286-365.714286 0 0-365.714286 365.714286 0zM768 804.571429l0 73.142857-73.142857 0 0-73.142857 73.142857 0zM914.285714 804.571429l0 73.142857-73.142857 0 0-73.142857 73.142857 0zM914.285714 512l0 219.428571-219.428571 0 0-73.142857-73.142857 0 0 219.428571-73.142857 0 0-365.714286 219.428571 0 0 73.142857 73.142857 0 0-73.142857 73.142857 0zM475.428571 73.142857l0 365.714286-365.714286 0 0-365.714286 365.714286 0zM914.285714 73.142857l0 365.714286-365.714286 0 0-365.714286 365.714286 0z" p-id="1246"></path></svg>